<?xml version="1.0" encoding="UTF-8" standalone="no"?>
<!DOCTYPE svg PUBLIC "-//W3C//DTD SVG 1.1//EN" "http://www.w3.org/Graphics/SVG/1.1/DTD/svg11.dtd">
<svg width="100%" height="100%" viewBox="0 0 45 58" version="1.1" xmlns="http://www.w3.org/2000/svg" xmlns:xlink="http://www.w3.org/1999/xlink" xml:space="preserve" xmlns:serif="http://www.serif.com/" style="fill-rule:evenodd;clip-rule:evenodd;stroke-linejoin:round;stroke-miterlimit:2;">
    <g transform="matrix(1,0,0,1,-10,-3)">
        <path d="M54,17.932C48.741,12.673 44.695,8.681 39.014,3L21.298,3C15.063,3 10,8.063 10,14.298L10,56.032C10.08,61.973 15.123,60.779 21.298,61L43.895,61C50.181,60.807 54.055,61.62 54,55.596L54,17.932Z" style="fill:white;"/>
        <path d="M23.2,56.931L20.841,48L22.748,48L24.188,54.012L25.7,48L27.62,48L25.244,56.928L23.2,56.931Z" style="fill:rgb(52,73,94);fill-rule:nonzero;"/>
        <path d="M31.893,57.051C30.96,57.11 30.041,56.792 29.343,56.169C28.702,55.486 28.374,54.566 28.437,53.631L28.437,48L30.345,48L30.345,53.514C30.296,54.028 30.418,54.544 30.692,54.982C30.992,55.306 31.429,55.468 31.868,55.416C32.122,55.424 32.376,55.387 32.618,55.308C32.797,55.248 32.956,55.142 33.08,55C33.354,54.566 33.477,54.054 33.429,53.543L33.429,48L35.336,48L35.336,53.544C35.402,54.496 35.081,55.435 34.448,56.149C33.756,56.787 32.832,57.113 31.893,57.051Z" style="fill:rgb(52,73,94);fill-rule:nonzero;"/>
        <path d="M36.656,48L42.645,48L42.645,49.632L38.564,49.632L38.564,51.456L41.54,51.456L41.54,53.088L38.564,53.101L38.564,55.301L42.788,55.301L42.788,56.933L36.656,56.933L36.656,48Z" style="fill:rgb(52,73,94);fill-rule:nonzero;"/>
        <path d="M40.232,37.087L45.469,34.063L45.469,28.018L40.232,31.047L40.232,37.087Z" style="fill:rgb(52,73,94);fill-rule:nonzero;"/>
        <path d="M44.469,26.286L39.234,23.264L34.002,26.285L39.242,29.309L44.469,26.286Z" style="fill:rgb(52,73,94);fill-rule:nonzero;"/>
        <path d="M38.232,37.084L38.232,31.036L33,28.016L33,34.063L38.232,37.084Z" style="fill:rgb(52,73,94);fill-rule:nonzero;"/>
        <path d="M18.531,25.709L23.763,28.729L23.763,22.681L18.531,19.661L18.531,25.709Z" style="fill:rgb(52,73,94);fill-rule:nonzero;"/>
        <path d="M53.84,17.73C53.82,17.71 53.8,17.68 53.78,17.66C53.76,17.631 53.736,17.604 53.71,17.58L39.42,3.29C39.4,3.27 39.37,3.25 39.35,3.23C39.33,3.21 39.29,3.18 39.27,3.16L39.12,3L14,3C11.806,3 10,4.806 10,7L10,57C10,59.194 11.806,61 14,61L50,61C52.194,61 54,59.194 54,57L54,17.88L53.84,17.73ZM39.71,6.41L50.59,17.29L41.71,17.29C40.614,17.287 39.713,16.386 39.71,15.29L39.71,6.41ZM16.531,17.354L24.766,12.6L33,17.354L33,24.554L39.234,20.954L47.469,25.708L47.469,35.217L39.234,39.972L31,35.218L31,28.018L24.766,31.618L16.531,26.863L16.531,17.354ZM52,57C51.997,58.096 51.096,58.997 50,59L14,59C12.904,58.997 12.003,58.096 12,57L12,41.46L25.73,41.46L28.43,44.55C28.618,44.768 28.892,44.892 29.18,44.89L52,44.89L52,57Z" style="fill:rgb(65,184,131);fill-rule:nonzero;"/>
        <path d="M30,17.932L24.766,14.91L19.533,17.93L24.773,20.954L30,17.932Z" style="fill:rgb(52,73,94);fill-rule:nonzero;"/>
        <path d="M25.763,28.733L31,25.71L31,19.664L25.763,22.692L25.763,28.733Z" style="fill:rgb(52,73,94);fill-rule:nonzero;"/>
        <g transform="matrix(1,0,0,1,43.2017,-29)">
            <rect x="4.66" y="32" width="2.816" height="9.46" style="fill:rgb(52,73,94);"/>
            <g transform="matrix(6.12323e-17,1,-1,6.12323e-17,42.7983,30.6617)">
                <rect x="4.66" y="32" width="2.816" height="9.46" style="fill:rgb(52,73,94);"/>
            </g>
        </g>
    </g>
</svg>
